PathFileType	4	(X/Y/Z)	./resultDataOpenSim/trcMotMarkerGrf/sub10/qtm-04-02.trc
DataRate	CameraRate	NumFrames	NumMarkers	Units	OrigDataRate	OrigDataStartFrame	OrigNumFrames
250.000000	250.000000	15	24	m	250.000000	1	527
Frame#	Time	L.Toe.Tip			R.Toe.Tip			L.Ankle.Lat			R.Ankle.Lat			L.Ankle.Med			R.Ankle.Med			L.Heel			R.Heel			L.Knee.Lat			R.Knee.Lat			L.Knee.Med			R.Knee.Med			L.Thigh.Upper			R.Thigh.Upper			L.ASIS			R.ASIS			V.Sacral			L.Acromium			R.Acromium			C7			L.Elbow			R.Elbow			L.Wrist.Lat			R.Wrist.Lat
		X1	Y1	Z1	X2	Y2	Z2	X3	Y3	Z3	X4	Y4	Z4	X5	Y5	Z5	X6	Y6	Z6	X7	Y7	Z7	X8	Y8	Z8	X9	Y9	Z9	X10	Y10	Z10	X11	Y11	Z11	X12	Y12	Z12	X13	Y13	Z13	X14	Y14	Z14	X15	Y15	Z15	X16	Y16	Z16	X17	Y17	Z17	X18	Y18	Z18	X19	Y19	Z19	X20	Y20	Z20	X21	Y21	Z21	X22	Y22	Z22	X23	Y23	Z23	X24	Y24	Z24

1	0	-1.5538179	0.038521436	-0.10671532	-1.0066005	0.11053653	-0.0035226968	-1.6875874	0.064676279	-0.14251249	-1.1404311	0.066881674	0.023513379	-1.6849713	0.089366442	-0.060789037	-1.1281943	0.10839176	-0.05449612	NaN	NaN	NaN	-1.1726562	0.02960972	-0.032128455	-1.5446133	0.42619481	-0.17998449	-1.2453151	0.45570274	0.075105119	-1.5517223	0.40864493	-0.058204631	-1.2382143	0.46432609	-0.054128012	-1.434437	0.80419184	-0.23939588	-1.4113043	0.83568151	0.13771289	-1.3581995	0.90451347	-0.1844125	-1.3452965	0.92485875	0.06147372	-1.5497745	0.94498447	-0.047658854	-1.3352844	1.3700686	-0.24407061	-1.3789689	1.3980291	0.069972366	-1.4285614	1.4220305	-0.10414086	-1.4718391	1.0463321	-0.32328315	NaN	NaN	NaN	-1.2981223	0.89178927	-0.22367414	-1.5456451	0.92554206	0.25895648
2	0.004	-1.5537801	0.038477569	-0.1067702	-0.99808551	0.11230371	-0.0034766323	-1.6875425	0.06327814	-0.14175978	-1.1315518	0.067332292	0.023616118	-1.6847348	0.089541997	-0.060760889	-1.1195949	0.10907798	-0.054274012	NaN	NaN	NaN	-1.1633933	0.029766075	-0.031933556	-1.5428329	0.42568484	-0.17992327	-1.2403747	0.45514738	0.075562034	-1.5498439	0.40801814	-0.058186465	-1.2336695	0.46375167	-0.05375929	-1.4313314	0.80279902	-0.24023826	-1.4068774	0.8347572	0.13774949	-1.3547299	0.90378263	-0.18462793	-1.3406884	0.9240527	0.061169036	-1.5463084	0.94387381	-0.047372089	-1.3321586	1.3693158	-0.24378976	-1.3757697	1.3968992	0.070296089	-1.4254679	1.4211457	-0.10372088	-1.467018	1.0446664	-0.32226281	NaN	NaN	NaN	-1.2929857	0.89148161	-0.22134408	-1.5443185	0.92449042	0.25920146
3	0.008	-1.5537325	0.038429641	-0.10682218	-0.98971315	0.11402403	-0.0034324508	-1.6875495	0.062529009	-0.14139284	-1.1227967	0.067765338	0.023754026	-1.6845018	0.089717412	-0.060723485	-1.1110849	0.10975034	-0.054061035	NaN	NaN	NaN	-1.154242	0.029954487	-0.031755331	-1.5410511	0.42518198	-0.17988484	-1.2355726	0.45455417	0.075981098	-1.5477946	0.4074711	-0.058202848	-1.2291536	0.46316488	-0.053375122	-1.4284262	0.80167642	-0.24087144	-1.4025026	0.83380815	0.13774082	-1.3514068	0.90305359	-0.18488429	-1.3363938	0.92319092	0.060834119	-1.5428159	0.9428126	-0.046982292	-1.3290197	1.3685665	-0.24351146	-1.3726654	1.3957713	0.070631744	-1.4223651	1.4202584	-0.10331551	-1.4621685	1.0429763	-0.32131931	NaN	NaN	NaN	-1.2878384	0.89118155	-0.21898964	-1.5429377	0.92345668	0.25947185
4	0.012	-1.5536729	0.038376457	-0.10687342	-0.98155579	0.11565009	-0.0034080792	-1.6875556	0.062481399	-0.14137655	-1.1142117	0.068186899	0.023942671	-1.6842649	0.089901254	-0.060668417	-1.1027227	0.11040562	-0.053835078	NaN	NaN	NaN	-1.1452574	0.0301864	-0.031575805	-1.5392486	0.42468979	-0.17986826	-1.231162	0.45383998	0.076285664	-1.5455439	0.40700691	-0.058257319	-1.2246638	0.46257268	-0.052979555	-1.4257444	0.80083906	-0.24134655	-1.3981949	0.83282686	0.13767761	-1.3483601	0.90229073	-0.18523629	-1.3323872	0.92227581	0.060473805	-1.5392768	0.94179904	-0.046474394	-1.3258625	1.3678203	-0.24322681	-1.3696641	1.3946612	0.07099091	-1.4192421	1.4193651	-0.10293686	-1.4572635	1.0412595	-0.32050345	NaN	NaN	NaN	-1.282649	0.89091386	-0.21660303	-1.5414819	0.92244526	0.2597779
5	0.016	-1.5536079	0.038321661	-0.10692953	-0.97357357	0.117148	-0.0033787631	-1.6875025	0.062789617	-0.14146499	-1.1057958	0.068611899	0.024183879	-1.684019	0.090101628	-0.060591509	-1.0945063	0.11105507	-0.053562287	NaN	NaN	NaN	-1.1364539	0.030439618	-0.031343459	-1.5374145	0.42420539	-0.1798598	-1.2273195	0.45295033	0.076425304	-1.5431965	0.40655622	-0.058325698	-1.2201874	0.46199322	-0.052580143	-1.4231796	0.80013358	-0.24181661	-1.3939167	0.83183289	0.13758317	-1.3456259	0.90146387	-0.18571441	-1.3284662	0.92133669	0.060089202	-1.5356954	0.94079563	-0.045909674	-1.3226923	1.3670746	-0.24292742	-1.3666872	1.3935829	0.071362156	-1.4160963	1.4184632	-0.10259304	-1.4522982	1.0395473	-0.31977764	NaN	NaN	NaN	-1.2773738	0.89070482	-0.21418704	-1.5399747	0.92144953	0.26011036
6	0.02	-1.5535464	0.038271587	-0.10699397	-0.96562255	0.11852722	-0.0032594727	-1.6874074	0.063168752	-0.14152006	-1.097539	0.069044307	0.024477494	-1.6837753	0.090317593	-0.060497183	-1.0864067	0.11170377	-0.053232234	NaN	NaN	NaN	-1.127814	0.030677568	-0.03100013	-1.5355609	0.42372211	-0.17985827	-1.2237122	0.4520039	0.076505679	-1.5408457	0.40605764	-0.058383687	-1.2157062	0.46143884	-0.052173936	-1.4206278	0.79944369	-0.24226932	-1.3895763	0.83085882	0.13749844	-1.3430436	0.90060164	-0.18626632	-1.324519	0.92038131	0.059662413	-1.5320912	0.93977035	-0.045349854	-1.3195093	1.3663312	-0.24261289	-1.363667	1.3925236	0.071730073	-1.4129192	1.4175539	-0.10226677	-1.4472759	1.0378739	-0.31902374	NaN	NaN	NaN	-1.2719782	0.89056215	-0.21173921	-1.5384464	0.92046258	0.2604546
7	0.024	-1.5534926	0.038229255	-0.10706405	-0.95760658	0.11983532	-0.0029995339	-1.6873093	0.06352544	-0.14152469	-1.0894404	0.0694763	0.024823435	-1.6835558	0.090542733	-0.060395071	-1.0784437	0.11233533	-0.052857809	NaN	NaN	NaN	-1.1193032	0.030886254	-0.030493362	-1.5337031	0.42323773	-0.17986966	-1.2196561	0.45122758	0.076734823	-1.5385168	0.40551478	-0.058417317	-1.211185	0.46091147	-0.051754134	-1.4180411	0.79874448	-0.24256116	-1.3850551	0.82993323	0.13746853	-1.3403262	0.89977009	-0.18677025	-1.3205523	0.91940676	0.059191654	-1.5284788	0.9387167	-0.044819703	-1.3163044	1.3655968	-0.24228567	-1.3606023	1.3914616	0.072102537	-1.4097004	1.4166434	-0.10192459	-1.4422035	1.0362453	-0.31815327	NaN	NaN	NaN	-1.2664891	0.89047415	-0.20926807	-1.5368962	0.91948556	0.26080706
8	0.028	-1.5534483	0.038193735	-0.10713312	-0.94960046	0.1211087	-0.0026581215	-1.687216	0.063875278	-0.14149694	-1.0814984	0.069898907	0.025223725	-1.6833779	0.090773952	-0.060289529	-1.0706572	0.11292794	-0.052446184	NaN	NaN	NaN	-1.1108945	0.031077139	-0.029793979	-1.5318358	0.42275718	-0.179887	-1.2148697	0.4507026	0.077190738	-1.5362257	0.40496242	-0.058414119	-1.2065845	0.46040509	-0.051316831	-1.4154116	0.79804936	-0.24263558	-1.3801906	0.82908909	0.13753587	-1.337273	0.89901466	-0.18712568	-1.3165571	0.91842613	0.058703701	-1.5248532	0.93764803	-0.044313835	-1.3130631	1.3648793	-0.24194781	-1.3575047	1.3903958	0.072487237	-1.4064389	1.4157387	-0.10155174	-1.4371015	1.0346494	-0.3171579	NaN	NaN	NaN	-1.2609973	0.89041689	-0.20680659	-1.5352998	0.91852213	0.26117545
9	0.032	-1.5534205	0.038164757	-0.10719731	-0.94177499	0.12233909	-0.0023376134	-1.6871122	0.064252877	-0.14145136	-1.073707	0.070309498	0.025683746	-1.6832521	0.091015857	-0.060176295	-1.0630714	0.11346378	-0.051989713	NaN	NaN	NaN	-1.1026182	0.031258183	-0.028947756	-1.5299379	0.42228842	-0.17989718	-1.209654	0.45032302	0.077763358	-1.5340026	0.40441574	-0.058361141	-1.2019066	0.45990985	-0.050863886	-1.4127471	0.7973662	-0.24259057	-1.3748235	0.8283675	0.13772875	-1.3339095	0.89832836	-0.18733898	-1.3124792	0.91746165	0.058226322	-1.5211943	0.93658173	-0.04380713	-1.3097728	1.3641834	-0.24160227	-1.3543615	1.389343	0.07287592	-1.4031415	1.414844	-0.10115607	-1.4320114	1.0330864	-0.31606186	NaN	NaN	NaN	-1.2555824	0.89037377	-0.20438922	-1.5336414	0.91757326	0.26156456
10	0.036	-1.5534236	0.038142551	-0.1072578	-0.93422527	0.12349132	-0.0020503972	-1.6869885	0.064678147	-0.14139799	-1.0660665	0.070708415	0.026209607	-1.6831919	0.091276562	-0.060050255	-1.0557145	0.11392446	-0.051481519	NaN	NaN	NaN	-1.0945596	0.031423795	-0.028066176	-1.5279998	0.42183557	-0.1798999	-1.2043359	0.44998913	0.078328472	-1.5318539	0.40387537	-0.058252998	-1.1972016	0.45941378	-0.050403642	-1.4100585	0.79668679	-0.24255957	-1.3690726	0.82776145	0.13800644	-1.3304707	0.89764798	-0.18753599	-1.3083051	0.91652398	0.057765871	-1.5174843	0.9355276	-0.043271775	-1.3064257	1.3635087	-0.24125216	-1.3511617	1.3883138	0.0732648	-1.399813	1.4139594	-0.10075424	-1.4269714	1.0315733	-0.31489185	NaN	NaN	NaN	-1.2502218	0.89035768	-0.20200892	-1.5319227	0.91664112	0.26196776
11	0.04	-1.5534683	0.038125262	-0.10731383	-0.92692537	0.12452501	-0.0016964846	-1.6868549	0.065161022	-0.14134792	-1.0585842	0.071090649	0.026805817	-1.6832121	0.091563027	-0.059915264	-1.0486237	0.11428981	-0.05092471	NaN	NaN	NaN	-1.0867803	0.031564307	-0.027224221	-1.5260301	0.42139707	-0.17990339	-1.1989688	0.44969163	0.078856238	-1.5297452	0.40334354	-0.058098833	-1.1925173	0.45890349	-0.049947	-1.4073549	0.79599799	-0.24260371	-1.3634189	0.8271867	0.13824802	-1.3271983	0.8969056	-0.18784521	-1.3040709	0.91561088	0.057317734	-1.5137214	0.93448592	-0.042703232	-1.3030208	1.3628536	-0.24089793	-1.3479179	1.3873011	0.073659433	-1.3964543	1.4130833	-0.10036276	-1.4219642	1.0301158	-0.31369483	NaN	NaN	NaN	-1.2448117	0.89039831	-0.1996231	-1.5301493	0.91572647	0.26237482
12	0.044	-1.5535481	0.038110423	-0.10735902	-0.91981409	0.12540515	-0.001173203	-1.6867358	0.065703249	-0.14130524	-1.0512683	0.071444172	0.027469111	-1.6832711	0.091888693	-0.059785485	-1.041813	0.11454508	-0.050330619	NaN	NaN	NaN	-1.0792759	0.031671682	-0.026411803	-1.5240346	0.42096994	-0.17990779	-1.193562	0.44942247	0.079362643	-1.5276358	0.40281504	-0.057922419	-1.1878635	0.45836967	-0.049500471	-1.4046412	0.79530169	-0.24270905	-1.3582593	0.82656421	0.13836182	-1.3241131	0.89609926	-0.18826297	-1.2998067	0.91471891	0.056879287	-1.5099172	0.93345079	-0.042122718	-1.2995672	1.3622173	-0.24053781	-1.3446338	1.3862919	0.074061607	-1.3930644	1.4122171	-0.099989082	-1.4169124	1.028698	-0.31253598	NaN	NaN	NaN	-1.2393022	0.89050782	-0.19721603	-1.5283124	0.91482492	0.26278225
13	0.048	-1.5536391	0.038097013	-0.10739035	-0.91286875	0.12613278	-0.00049706648	-1.6866659	0.066292973	-0.14125708	-1.0441258	0.071755397	0.028187567	-1.683133	0.092288939	-0.059675331	-1.0352384	0.11470121	-0.049709639	NaN	NaN	NaN	-1.0720158	0.031742588	-0.025587153	-1.5220038	0.4205513	-0.17990583	-1.1882809	0.44911345	0.079841884	-1.5254801	0.40228005	-0.057761394	-1.1832225	0.4578125	-0.049064512	-1.4019165	0.79461672	-0.24283972	-1.3535705	0.82588725	0.13836135	-1.3210648	0.89527441	-0.18869897	-1.2955083	0.91384954	0.056448634	-1.5060801	0.93241817	-0.04154555	-1.2960777	1.3615991	-0.24016906	-1.3412893	1.3852846	0.074466461	-1.3896425	1.4113636	-0.099626997	-1.4117518	1.0273073	-0.31145405	NaN	NaN	NaN	-1.2337549	0.89067245	-0.19481931	-1.5263896	0.91393608	0.26319348
14	0.052	-1.5537118	0.038084057	-0.1074135	-0.90610827	0.1267509	0.00019714218	-1.6866751	0.06690229	-0.14117792	-1.0371649	0.072013902	0.028953466	-1.6822903	0.092817128	-0.059587921	-1.0288169	0.11479717	-0.04905865	NaN	NaN	NaN	-1.0649849	0.031777785	-0.024722924	-1.5199265	0.42013958	-0.17989401	-1.1833438	0.4486859	0.080257884	-1.5232009	0.40173645	-0.057656253	-1.1785795	0.45723843	-0.048638093	-1.3991699	0.79395351	-0.24296875	-1.3490918	0.82519057	0.13830763	-1.3179521	0.89445373	-0.18911102	-1.2911482	0.9130043	0.056022196	-1.5022073	0.9313918	-0.040963389	-1.2925571	1.3609996	-0.23978754	-1.3378708	1.3842899	0.074871141	-1.386187	1.4105232	-0.099260878	-1.4064822	1.0259465	-0.31043616	NaN	NaN	NaN	-1.2282499	0.89087386	-0.19246706	-1.5243646	0.91306886	0.26361051
15	0.056	-1.5537472	0.038070044	-0.10743493	-0.89955537	0.12728615	0.00081019727	-1.6867463	0.067503546	-0.1410448	-1.030396	0.072213044	0.029765835	-1.6803033	0.093503603	-0.059504924	-1.022494	0.11486127	-0.048364794	NaN	NaN	NaN	-1.0581847	0.031775967	-0.023802341	-1.5178015	0.41973888	-0.1798763	-1.1788066	0.44812769	0.080586316	-1.520765	0.40118105	-0.057617761	-1.173937	0.45665292	-0.048220765	-1.3963832	0.79329811	-0.24307687	-1.3445883	0.82451255	0.13823851	-1.3147991	0.89362152	-0.18953229	-1.2867051	0.9121793	0.055592287	-1.498292	0.93037915	-0.040367686	-1.289001	1.3604228	-0.23938858	-1.3343771	1.3833167	0.075287017	-1.3826937	1.4096952	-0.098873664	-1.4011372	1.0246201	-0.30944416	NaN	NaN	NaN	-1.222774	0.89111385	-0.19015146	-1.5222454	0.9122295	0.26402824
